solid exported
	facet normal 0.5773502691896257 -0.5773502691896256 0.5773502691896258
		outer loop
			vertex 0 1.1102230246251565e-14 50
			vertex 0 -50 1.1102230246251565e-14
			vertex 50 0 0
		endloop
	endfacet
	facet normal 0.5773502691896258 -0.577350269189626 -0.5773502691896257
		outer loop
			vertex 0 -50 1.1102230246251565e-14
			vertex 0 -1.1102230246251565e-14 -50
			vertex 50 0 0
		endloop
	endfacet
	facet normal 0.5773502691896257 0.5773502691896256 -0.5773502691896258
		outer loop
			vertex 0 -1.1102230246251565e-14 -50
			vertex 0 50 -1.1102230246251565e-14
			vertex 50 0 0
		endloop
	endfacet
	facet normal 0.5773502691896258 0.577350269189626 0.5773502691896257
		outer loop
			vertex 0 50 -1.1102230246251565e-14
			vertex 0 1.1102230246251565e-14 50
			vertex 50 0 0
		endloop
	endfacet
	facet normal -0.5773502691896258 0.577350269189626 0.5773502691896257
		outer loop
			vertex 0 1.1102230246251565e-14 50
			vertex 0 50 -1.1102230246251565e-14
			vertex -50 0 0
		endloop
	endfacet
	facet normal -0.5773502691896257 0.5773502691896256 -0.5773502691896258
		outer loop
			vertex 0 50 -1.1102230246251565e-14
			vertex 0 -1.1102230246251565e-14 -50
			vertex -50 0 0
		endloop
	endfacet
	facet normal -0.5773502691896258 -0.577350269189626 -0.5773502691896257
		outer loop
			vertex 0 -1.1102230246251565e-14 -50
			vertex 0 -50 1.1102230246251565e-14
			vertex -50 0 0
		endloop
	endfacet
	facet normal -0.5773502691896257 -0.5773502691896256 0.5773502691896258
		outer loop
			vertex 0 -50 1.1102230246251565e-14
			vertex 0 1.1102230246251565e-14 50
			vertex -50 0 0
		endloop
	endfacet
endsolid exported
